{
  "accessors": [
    {
      "bufferView": 3,
      "componentType": 5126,
      "count": 8166,
      "max": [
        1.1578739881515503,
        2.5468223094940186,
        1.4396458864212036
      ],
      "min": [
        -1.1578739881515503,
        -2.4100868701934814,
        -1.23099684715271
      ],
      "type": "VEC3"
    },
    {
      "bufferView": 3,
      "byteOffset": 97992,
      "componentType": 5126,
      "count": 8166,
      "max": [
        1.0,
        1.0,
        1.0
      ],
      "min": [
        -1.0,
        -1.0,
        -1.0
      ],
      "type": "VEC3"
    },
    {
      "bufferView": 4,
      "componentType": 5126,
      "count": 8166,
      "max": [
        1.0,
        1.0,
        1.0,
        1.0
      ],
      "min": [
        0.0,
        0.0,
        0.0,
        1.0
      ],
      "type": "VEC4"
    },
    {
      "bufferView": 2,
      "componentType": 5126,
      "count": 8166,
      "max": [
        0.9959574341773987,
        0.9912396669387817
      ],
      "min": [
        0.004042583517730236,
        0.004042583517730236
      ],
      "type": "VEC2"
    },
    {
      "bufferView": 1,
      "componentType": 5125,
      "count": 16956,
      "type": "SCALAR"
    },
    {
      "bufferView": 5,
      "componentType": 5126,
      "count": 9,
      "max": [
        100.0,
        1.0000001192092896,
        1.414962270344499e-14,
        0.0,
        1.2246468525851679e-16,
        100.0,
        1.0,
        0.0,
        1.0,
        1.0,
        100.0,
        0.0,
        8.078864084382076e-07,
        0.9069410562515259,
        2.0805978775024414,
        1.0
      ],
      "min": [
        -1.0,
        -7.498798786105971e-33,
        -3.8941436741879443e-07,
        0.0,
        -3.8941436741879443e-07,
        -1.4149623550477938e-14,
        -1.0,
        0.0,
        0.0,
        -7.260232592898319e-08,
        -1.0272954138668344e-21,
        0.0,
        0.0,
        -2.328333525980497e-09,
        -0.09084474295377731,
        1.0
      ],
      "type": "MAT4"
    },
    {
      "bufferView": 0,
      "componentType": 5123,
      "count": 8166,
      "type": "VEC4"
    },
    {
      "bufferView": 4,
      "byteOffset": 130656,
      "componentType": 5126,
      "count": 8166,
      "max": [
        1.0,
        0.0,
        0.0,
        0.0
      ],
      "min": [
        1.0,
        0.0,
        0.0,
        0.0
      ],
      "type": "VEC4"
    },
    {
      "bufferView": 6,
      "componentType": 5126,
      "count": 350,
      "max": [
        9.920000076293945
      ],
      "min": [
        0.0
      ],
      "type": "SCALAR"
    },
    {
      "bufferView": 7,
      "componentType": 5126,
      "count": 350,
      "max": [
        -1.210719347000122e-07,
        0.16860604286193848,
        1.9897533655166626
      ],
      "min": [
        -4.76837158203125e-07,
        0.16860592365264893,
        1.9897531270980835
      ],
      "type": "VEC3"
    },
    {
      "bufferView": 6,
      "byteOffset": 1400,
      "componentType": 5126,
      "count": 350,
      "max": [
        9.920000076293945
      ],
      "min": [
        0.0
      ],
      "type": "SCALAR"
    },
    {
      "bufferView": 8,
      "componentType": 5126,
      "count": 350,
      "max": [
        6.123232939436859e-17,
        1.0,
        0.6030617952346802,
        1.3315805347247078e-07
      ],
      "min": [
        -8.571046095084967e-08,
        0.7976944446563721,
        6.123232939436859e-17,
        1.0213101830913729e-07
      ],
      "type": "VEC4"
    },
    {
      "bufferView": 6,
      "byteOffset": 2800,
      "componentType": 5126,
      "count": 476,
      "max": [
        9.920000076293945
      ],
      "min": [
        0.0
      ],
      "type": "SCALAR"
    },
    {
      "bufferView": 7,
      "byteOffset": 4200,
      "componentType": 5126,
      "count": 476,
      "max": [
        1.1609517969191074e-07,
        -2.842170943040401e-14,
        4.76837158203125e-07
      ],
      "min": [
        -4.76837158203125e-07,
        -2.2351741790771484e-08,
        -8.847564458847046e-08
      ],
      "type": "VEC3"
    },
    {
      "bufferView": 6,
      "byteOffset": 4704,
      "componentType": 5126,
      "count": 4,
      "max": [
        9.920000076293945
      ],
      "min": [
        0.0
      ],
      "type": "SCALAR"
    },
    {
      "bufferView": 7,
      "byteOffset": 9912,
      "componentType": 5126,
      "count": 4,
      "max": [
        1.0,
        0.9999999403953552,
        1.0
      ],
      "min": [
        0.9999999403953552,
        0.9999999403953552,
        1.0
      ],
      "type": "VEC3"
    },
    {
      "bufferView": 6,
      "byteOffset": 4720,
      "componentType": 5126,
      "count": 476,
      "max": [
        9.920000076293945
      ],
      "min": [
        0.0
      ],
      "type": "SCALAR"
    },
    {
      "bufferView": 8,
      "byteOffset": 5600,
      "componentType": 5126,
      "count": 476,
      "max": [
        0.7071055173873901,
        0.7071049809455872,
        0.4995477795600891,
        0.707099199295044
      ],
      "min": [
        -0.4995429515838623,
        -0.49959486722946167,
        -0.7070993781089783,
        -0.49950048327445984
      ],
      "type": "VEC4"
    },
    {
      "bufferView": 6,
      "byteOffset": 6624,
      "componentType": 5126,
      "count": 298,
      "max": [
        9.920000076293945
      ],
      "min": [
        0.0
      ],
      "type": "SCALAR"
    },
    {
      "bufferView": 7,
      "byteOffset": 9960,
      "componentType": 5126,
      "count": 298,
      "max": [
        9.5367431640625e-07,
        0.9069423675537109,
        -1.269934892654419
      ],
      "min": [
        -1.1344673112034798e-07,
        0.9069409370422363,
        -1.2699350118637085
      ],
      "type": "VEC3"
    },
    {
      "bufferView": 6,
      "byteOffset": 7816,
      "componentType": 5126,
      "count": 298,
      "max": [
        9.920000076293945
      ],
      "min": [
        0.0
      ],
      "type": "SCALAR"
    },
    {
      "bufferView": 8,
      "byteOffset": 13216,
      "componentType": 5126,
      "count": 298,
      "max": [
        -7.214590880266769e-08,
        0.7071068286895752,
        0.7071067094802856,
        -1.1182446968405202e-07
      ],
      "min": [
        -7.648945654636918e-08,
        0.7071068286895752,
        0.7071067094802856,
        -1.1616802453318087e-07
      ],
      "type": "VEC4"
    },
    {
      "bufferView": 6,
      "byteOffset": 9008,
      "componentType": 5126,
      "count": 298,
      "max": [
        9.920000076293945
      ],
      "min": [
        0.0
      ],
      "type": "SCALAR"
    },
    {
      "bufferView": 7,
      "byteOffset": 13536,
      "componentType": 5126,
      "count": 298,
      "max": [
        7.152557373046875e-07,
        2.24100923538208,
        -1.269934892654419
      ],
      "min": [
        -7.939524948596954e-08,
        2.2410085201263428,
        -1.2699350118637085
      ],
      "type": "VEC3"
    },
    {
      "bufferView": 6,
      "byteOffset": 10200,
      "componentType": 5126,
      "count": 298,
      "max": [
        9.920000076293945
      ],
      "min": [
        0.0
      ],
      "type": "SCALAR"
    },
    {
      "bufferView": 8,
      "byteOffset": 17984,
      "componentType": 5126,
      "count": 298,
      "max": [
        -6.146728992462158e-08,
        3.143213334055872e-08,
        -3.085733624175191e-08,
        1.0
      ],
      "min": [
        -6.225668869319634e-08,
        3.112834079388449e-08,
        -4.470348713425665e-08,
        1.0
      ],
      "type": "VEC4"
    },
    {
      "bufferView": 6,
      "byteOffset": 11392,
      "componentType": 5126,
      "count": 496,
      "max": [
        9.920000076293945
      ],
      "min": [
        0.0
      ],
      "type": "SCALAR"
    },
    {
      "bufferView": 7,
      "byteOffset": 17112,
      "componentType": 5126,
      "count": 496,
      "max": [
        3.1354732513427734,
        18.47439193725586,
        1.2699350118637085
      ],
      "min": [
        -7.463269233703613,
        -3.648341655731201,
        1.2699350118637085
      ],
      "type": "VEC3"
    },
    {
      "bufferView": 6,
      "byteOffset": 13376,
      "componentType": 5126,
      "count": 496,
      "max": [
        9.920000076293945
      ],
      "min": [
        0.0
      ],
      "type": "SCALAR"
    },
    {
      "bufferView": 8,
      "byteOffset": 22752,
      "componentType": 5126,
      "count": 496,
      "max": [
        0.07147026062011719,
        0.1369875818490982,
        0.9995150566101074,
        0.977681040763855
      ],
      "min": [
        -0.24033910036087036,
        -0.19774383306503296,
        -0.8449217081069946,
        -0.4850320518016815
      ],
      "type": "VEC4"
    }
  ],
  "animations": [
    {
      "channels": [
        {
          "sampler": 0,
          "target": {
            "node": 11,
            "path": "translation"
          }
        },
        {
          "sampler": 1,
          "target": {
            "node": 11,
            "path": "rotation"
          }
        },
        {
          "sampler": 2,
          "target": {
            "node": 14,
            "path": "translation"
          }
        },
        {
          "sampler": 3,
          "target": {
            "node": 14,
            "path": "scale"
          }
        },
        {
          "sampler": 4,
          "target": {
            "node": 14,
            "path": "rotation"
          }
        },
        {
          "sampler": 5,
          "target": {
            "node": 13,
            "path": "translation"
          }
        },
        {
          "sampler": 6,
          "target": {
            "node": 13,
            "path": "rotation"
          }
        },
        {
          "sampler": 7,
          "target": {
            "node": 16,
            "path": "translation"
          }
        },
        {
          "sampler": 8,
          "target": {
            "node": 16,
            "path": "rotation"
          }
        },
        {
          "sampler": 9,
          "target": {
            "node": 10,
            "path": "translation"
          }
        },
        {
          "sampler": 10,
          "target": {
            "node": 10,
            "path": "rotation"
          }
        }
      ],
      "name": "Animation",
      "samplers": [
        {
          "input": 8,
          "interpolation": "LINEAR",
          "output": 9
        },
        {
          "input": 10,
          "interpolation": "LINEAR",
          "output": 11
        },
        {
          "input": 12,
          "interpolation": "LINEAR",
          "output": 13
        },
        {
          "input": 14,
          "interpolation": "LINEAR",
          "output": 15
        },
        {
          "input": 16,
          "interpolation": "LINEAR",
          "output": 17
        },
        {
          "input": 18,
          "interpolation": "LINEAR",
          "output": 19
        },
        {
          "input": 20,
          "interpolation": "LINEAR",
          "output": 21
        },
        {
          "input": 22,
          "interpolation": "LINEAR",
          "output": 23
        },
        {
          "input": 24,
          "interpolation": "LINEAR",
          "output": 25
        },
        {
          "input": 26,
          "interpolation": "LINEAR",
          "output": 27
        },
        {
          "input": 28,
          "interpolation": "LINEAR",
          "output": 29
        }
      ]
    }
  ],
  "asset": {
    "extras": {
      "author": "Gostbento (https://sketchfab.com/gostbento)",
      "license": "CC-BY-4.0 (http://creativecommons.org/licenses/by/4.0/)",
      "source": "https://sketchfab.com/3d-models/delivery-robot-4dbac67355174751801fb1f6e8dc6230",
      "title": "Delivery robot"
    },
    "generator": "Sketchfab-12.66.0",
    "version": "2.0"
  },
  "bufferViews": [
    {
      "buffer": 0,
      "byteLength": 65328,
      "byteStride": 8,
      "name": "shortBufferViews",
      "target": 34962
    },
    {
      "buffer": 0,
      "byteLength": 67824,
      "byteOffset": 65328,
      "name": "floatBufferViews",
      "target": 34963
    },
    {
      "buffer": 0,
      "byteLength": 65328,
      "byteOffset": 133152,
      "byteStride": 8,
      "name": "floatBufferViews",
      "target": 34962
    },
    {
      "buffer": 0,
      "byteLength": 195984,
      "byteOffset": 198480,
      "byteStride": 12,
      "name": "floatBufferViews",
      "target": 34962
    },
    {
      "buffer": 0,
      "byteLength": 261312,
      "byteOffset": 394464,
      "byteStride": 16,
      "name": "floatBufferViews",
      "target": 34962
    },
    {
      "buffer": 0,
      "byteLength": 576,
      "byteOffset": 655776,
      "name": "floatBufferViews"
    },
    {
      "buffer": 0,
      "byteLength": 15360,
      "byteOffset": 656352,
      "name": "floatBufferViews"
    },
    {
      "buffer": 0,
      "byteLength": 23064,
      "byteOffset": 671712,
      "byteStride": 12,
      "name": "floatBufferViews"
    },
    {
      "buffer": 0,
      "byteLength": 30688,
      "byteOffset": 694776,
      "byteStride": 16,
      "name": "floatBufferViews"
    }
  ],
  "buffers": [
    {
      "byteLength": 725464,
      "uri": "scene.bin"
    }
  ],
  "images": [
    {
      "uri": "textures/Material.002_baseColor.png"
    },
    {
      "uri": "textures/Material.002_metallicRoughness.png"
    },
    {
      "uri": "textures/Material.002_emissive.png"
    }
  ],
  "materials": [
    {
      "doubleSided": true,
      "emissiveFactor": [
        0.19092851850073342,
        0.19092851850073342,
        0.19092851850073342
      ],
      "emissiveTexture": {
        "index": 2
      },
      "name": "Material.002",
      "pbrMetallicRoughness": {
        "baseColorTexture": {
          "index": 0
        },
        "metallicRoughnessTexture": {
          "index": 1
        }
      }
    }
  ],
  "meshes": [
    {
      "name": "Cube_Material.002_0",
      "primitives": [
        {
          "attributes": {
            "COLOR_0": 2,
            "JOINTS_0": 6,
            "NORMAL": 1,
            "POSITION": 0,
            "TEXCOORD_0": 3,
            "WEIGHTS_0": 7
          },
          "indices": 4,
          "material": 0,
          "mode": 4
        }
      ]
    }
  ],
  "nodes": [
    {
      "children": [
        1
      ],
      "matrix": [
        0.0022830648813396692,
        0.0,
        0.0,
        0.0,
        0.0,
        5.069422395952803e-19,
        -0.0022830648813396692,
        0.0,
        0.0,
        0.0022830648813396692,
        5.069422395952803e-19,
        0.0,
        0.0,
        0.0,
        0.0,
        1.0
      ],
      "name": "Sketchfab_model"
    },
    {
      "children": [
        2
      ],
      "matrix": [
        1.0,
        0.0,
        0.0,
        0.0,
        0.0,
        0.0,
        1.0,
        0.0,
        0.0,
        -1.0,
        0.0,
        0.0,
        0.0,
        0.0,
        0.0,
        1.0
      ],
      "name": "6e734d7dca644fcab9b5a40628918a66.fbx"
    },
    {
      "children": [
        3
      ],
      "name": "Object_2"
    },
    {
      "children": [
        4,
        5,
        18
      ],
      "name": "RootNode"
    },
    {
      "name": "Cube",
      "rotation": [
        -0.7071068286895752,
        0.0,
        0.0,
        0.7071067094802856
      ],
      "scale": [
        100.0,
        100.0,
        100.0
      ]
    },
    {
      "children": [
        6
      ],
      "name": "Armature",
      "rotation": [
        -0.7071068286895752,
        0.0,
        0.0,
        0.7071067094802856
      ],
      "scale": [
        100.0,
        100.0,
        100.0
      ],
      "translation": [
        2.3283064365386963e-07,
        -117.90902709960938,
        -1.471489667892456e-05
      ]
    },
    {
      "children": [
        7,
        9,
        8
      ],
      "name": "Object_6"
    },
    {
      "children": [
        10
      ],
      "name": "_rootJoint"
    },
    {
      "matrix": [
        100.0,
        0.0,
        0.0,
        0.0,
        0.0,
        6.123233995736766e-15,
        -100.0,
        0.0,
        0.0,
        100.0,
        6.123233995736766e-15,
        0.0,
        1.5987211554602254e-14,
        2.682209014892578e-07,
        4.5299530029296875e-06,
        1.0
      ],
      "name": "Object_8"
    },
    {
      "mesh": 0,
      "name": "Object_9",
      "skin": 0
    },
    {
      "children": [
        11,
        13,
        16
      ],
      "name": "bod_00",
      "rotation": [
        -0.011783476918935776,
        -0.03146706521511078,
        0.9783558249473572,
        0.20418334007263184
      ],
      "scale": [
        1.0,
        0.9999999403953552,
        1.0
      ],
      "translation": [
        1.1997350454330444,
        0.15568041801452637,
        1.2699350118637085
      ]
    },
    {
      "children": [
        12
      ],
      "name": "lid_01",
      "rotation": [
        -8.29141697522573e-08,
        0.8696561455726624,
        0.4936579465866089,
        1.7682384623185499e-07
      ],
      "translation": [
        4.470348358154297e-08,
        0.16860590875148773,
        1.989753007888794
      ]
    },
    {
      "name": "lid_end_011",
      "rotation": [
        -5.551115123125783e-17,
        -2.7755575615628914e-17,
        4.163336342344337e-17,
        1.0
      ],
      "translation": [
        0.0,
        1.7443630695343018,
        0.0
      ]
    },
    {
      "children": [
        14
      ],
      "name": "Vert_02",
      "rotation": [
        -2.7691557491493768e-08,
        0.7071068286895752,
        0.7071067094802856,
        -7.907860322120541e-08
      ],
      "translation": [
        4.4994521886110306e-08,
        0.9069408774375916,
        -1.2699350118637085
      ]
    },
    {
      "children": [
        15
      ],
      "name": "wel_03",
      "rotation": [
        -0.3574317693710327,
        -0.3574317991733551,
        -0.6101168394088745,
        0.6101167798042297
      ],
      "scale": [
        0.9999999403953552,
        1.0000001192092896,
        1.0
      ],
      "translation": [
        1.8987338989973068e-07,
        2.9802322387695313e-08,
        -4.190951585769653e-08
      ]
    },
    {
      "name": "wel_end_012",
      "rotation": [
        -1.5407439555097887e-33,
        5.551115123125783e-17,
        2.7755575615628914e-17,
        1.0
      ],
      "translation": [
        0.0,
        0.9574015140533447,
        -2.220446049250313e-16
      ]
    },
    {
      "children": [
        17
      ],
      "name": "point_04",
      "rotation": [
        -6.239861249923706e-08,
        3.166496753692627e-08,
        -2.172600943595171e-08,
        1.0
      ],
      "translation": [
        5.8906152844429016e-08,
        2.2410082817077637,
        -1.2699350118637085
      ]
    },
    {
      "name": "point_end_013",
      "rotation": [
        3.469446951953614e-18,
        3.469446951953614e-18,
        -1.2037062152420224e-35,
        1.0
      ],
      "translation": [
        2.220446049250313e-16,
        0.9574015140533447,
        -2.220446049250313e-16
      ]
    },
    {
      "name": "Crane_Rig",
      "rotation": [
        -0.7071068286895752,
        0.0,
        0.0,
        0.7071067094802856
      ],
      "scale": [
        274.014404296875,
        274.014404296875,
        274.014404296875
      ],
      "translation": [
        -420.7284851074219,
        -117.90902709960938,
        1008.9940795898438
      ]
    }
  ],
  "samplers": [
    {
      "magFilter": 9729,
      "minFilter": 9987,
      "wrapS": 10497,
      "wrapT": 10497
    }
  ],
  "scene": 0,
  "scenes": [
    {
      "name": "Sketchfab_Scene",
      "nodes": [
        0
      ]
    }
  ],
  "skins": [
    {
      "inverseBindMatrices": 5,
      "joints": [
        7,
        10,
        11,
        12,
        13,
        14,
        15,
        16,
        17
      ],
      "skeleton": 7
    }
  ],
  "textures": [
    {
      "sampler": 0,
      "source": 0
    },
    {
      "sampler": 0,
      "source": 1
    },
    {
      "sampler": 0,
      "source": 2
    }
  ]
}
